# Blender v2.90.0 OBJ File: ''
# www.blender.org
o Petals.002_Cube.002
v 0.170222 1.406616 -0.188832
v 0.135444 1.392568 -0.045402
v 0.170222 1.406616 -0.018694
v 0.175360 1.385860 -0.652868
v 0.158857 1.358124 -0.754991
v 0.033374 1.385860 -0.683780
v -0.255843 1.396259 -0.201751
v -0.579565 1.385860 -0.164454
v -0.574279 1.385860 -0.019237
v -0.676374 1.382205 -0.432495
v -0.707919 1.382205 -0.359774
v -0.624497 1.413787 -0.276608
v -0.433171 1.385860 -0.500297
v -0.244341 1.396259 -0.234721
v -0.093744 1.396259 -0.360646
v -0.424230 1.358125 0.402584
v -0.429310 1.333550 0.449137
v -0.424544 1.333550 0.452566
v 0.139254 1.333549 -0.800970
v 0.127779 1.333549 -0.803468
v 0.489923 1.382204 -0.672722
v 0.427303 1.382204 -0.721324
v 0.326039 1.413787 -0.661146
v -0.179724 1.425628 -0.336064
v -0.128290 1.406616 -0.242857
v 0.036820 1.425628 -0.391529
v 0.144458 1.358125 0.527289
v 0.178118 1.333549 0.559846
v 0.183750 1.333549 0.558183
v -0.398731 1.385860 0.302328
v -0.280772 1.385860 0.387190
v 0.211221 1.358125 0.507574
v 0.220256 1.385860 0.404522
v -0.056988 1.379562 -0.278356
v 0.089006 1.379562 -0.246572
v 0.131167 1.396259 -0.330016
v 0.558609 1.354221 0.471864
v 0.546074 1.382205 0.420034
v 0.553727 1.354221 0.476433
v 0.090837 1.358124 -0.769800
v -0.107159 1.406616 0.055251
v 0.060845 1.406616 0.082111
v 0.039962 1.392569 0.043554
v -0.674399 1.358125 -0.123127
v -0.671867 1.358125 -0.053560
v -0.412488 1.358125 -0.643088
v -0.456324 1.333550 -0.659561
v -0.460829 1.333550 -0.655794
v 0.614280 1.333549 -0.431827
v 0.567563 1.358124 -0.435068
v 0.616811 1.333549 -0.426528
v 0.144992 1.333549 -0.799721
v 0.252876 1.425628 -0.249660
v 0.456754 1.413787 -0.559692
v -0.243386 1.413787 -0.701622
v 0.497633 1.354221 -0.725486
v 0.492351 1.354221 -0.729586
v 0.168599 1.406616 -0.184620
v 0.033969 1.392568 -0.245089
v 0.126177 1.392568 -0.173522
v 0.487069 1.349680 -0.733686
v 0.481787 1.354221 -0.737785
v 0.526360 1.385860 0.069760
v 0.247441 1.396259 -0.098736
v 0.159393 1.396259 0.076718
v -0.093789 1.392568 -0.215794
v -0.037253 1.384909 -0.230275
v 0.564209 1.358124 0.208989
v 0.613613 1.333549 0.201408
v 0.618881 1.333549 0.190911
v -0.159113 1.379562 -0.032297
v -0.164548 1.379562 -0.181612
v -0.639266 1.382205 0.299963
v -0.677373 1.382205 0.230455
v -0.695801 1.354221 0.293383
v -0.040567 1.367226 -0.243525
v 0.621874 1.333549 -0.415931
v 0.619342 1.329561 -0.421230
v 0.133517 1.329561 -0.802219
v 0.643199 1.413787 -0.021030
v 0.752827 1.382205 -0.064129
v 0.643199 1.413787 -0.186497
v 0.273276 1.425628 0.008004
v 0.156036 1.379562 -0.118372
v -0.035562 1.396259 0.141331
v 0.080893 1.385860 0.445675
v 0.461184 1.385860 0.199637
v 0.019283 1.392568 -0.244756
v -0.008985 1.366279 -0.237516
v 0.019283 1.366279 -0.244756
v 0.036527 1.406616 -0.285072
v 0.034194 1.406616 -0.288937
v -0.149792 1.425628 0.152798
v -0.179523 1.413787 0.522666
v -0.016131 1.413787 0.548788
v 0.135444 1.392568 -0.162124
v -0.737384 1.354221 -0.408469
v -0.248702 1.396259 -0.005574
v -0.109255 1.354221 0.691919
v -0.075997 1.382205 0.650237
v -0.115858 1.354221 0.690864
v -0.129063 1.354221 0.688752
v -0.122461 1.349680 0.689808
v -0.123807 1.406616 -0.242330
v -0.191513 1.406616 -0.086244
v -0.148980 1.392569 -0.096907
v -0.152047 1.382204 -0.838185
v -0.228836 1.382205 -0.818516
v -0.321694 1.385860 -0.593510
v -0.102531 1.392568 -0.203988
v 0.543963 1.354221 0.485570
v 0.548845 1.349680 0.481002
v 0.595431 1.358124 0.146771
v -0.129445 1.367226 -0.056847
v 0.799237 1.354221 -0.097077
v 0.799237 1.354221 -0.110450
v -0.207726 1.425628 -0.307834
v -0.558649 1.413787 -0.428408
v 0.118219 1.367226 -0.111107
v 0.072244 1.367226 -0.019491
v -0.465334 1.329562 -0.652027
v -0.469838 1.333550 -0.648260
v -0.154271 1.382205 0.637723
v -0.135666 1.354221 0.687697
v -0.188348 1.406616 -0.089463
v -0.106557 1.406616 0.059725
v -0.088902 1.392569 0.019587
v 0.752827 1.382205 -0.143397
v -0.145014 1.392569 -0.082762
v 0.070939 1.425628 0.188088
v 0.181170 1.406616 -0.036407
v 0.056942 1.406616 0.079843
v 0.107862 1.425628 0.173332
v -0.732062 1.354221 -0.420737
v 0.137906 1.392569 -0.043551
v -0.053677 1.379562 -0.276177
v -0.168300 1.379562 -0.180333
v -0.130716 1.367226 -0.171948
v -0.367721 1.358125 0.443238
v -0.415010 1.333550 0.459425
v -0.702230 1.354221 0.281656
v 0.799237 1.354221 -0.090390
v 0.076289 1.425628 -0.386718
v -0.184087 1.425628 0.132678
v -0.291548 1.425628 -0.063332
v -0.075296 1.392569 0.025127
v 0.195013 1.333549 0.554857
v 0.152708 1.396259 0.085737
v -0.699015 1.349680 0.287520
v 0.502637 1.413787 0.310539
v 0.271078 1.425628 0.020597
v -0.195480 1.354221 -0.874968
v -0.201957 1.349680 -0.873309
v -0.208434 1.354221 -0.871650
v -0.060646 1.396259 -0.371775
v 0.273276 1.425628 -0.215530
v 0.052680 1.392569 0.036202
v -0.070355 1.396259 0.138369
v -0.036535 1.379562 0.051211
v -0.229709 1.396259 0.023727
v 0.088697 1.379562 -0.250525
v 0.153103 1.379562 -0.115705
v 0.244872 1.396259 -0.133560
v 0.089021 1.379562 0.015170
v -0.008985 1.392568 -0.237516
v -0.729402 1.354221 -0.426872
v -0.692586 1.354221 0.299246
v 0.597570 1.358124 -0.372254
v -0.474343 1.333550 -0.644494
v -0.465891 1.358125 -0.598433
v -0.083094 1.413787 -0.742679
v -0.714290 1.333550 -0.098597
v -0.714076 1.333550 -0.092729
v 0.476504 1.354221 -0.741885
v -0.740045 1.354221 -0.402334
v 0.160253 1.396259 -0.310693
v -0.189002 1.354221 -0.876627
v 0.616247 1.329561 0.196160
v 0.115435 1.367226 -0.123704
v -0.522418 1.413787 0.285053
v 0.059591 1.367226 -0.221720
v 0.464376 1.385859 -0.427721
v -0.214912 1.354221 -0.869991
v 0.381819 1.413787 0.423598
v 0.488195 1.382205 0.474196
v 0.799237 1.349680 -0.103763
v 0.104591 1.379562 0.005580
v -0.052079 1.367226 -0.237702
v -0.713649 1.333550 -0.080993
v -0.705444 1.354221 0.275793
v -0.296681 1.425628 -0.102761
v -0.410244 1.333550 0.462854
v -0.419777 1.329562 0.455996
v 0.200645 1.333549 0.553194
v -0.601964 1.413787 0.139961
v -0.157823 1.379562 -0.036046
v -0.037739 1.367226 0.012722
v 0.527014 1.385859 -0.296602
v 0.624405 1.333549 -0.410633
v 0.799237 1.354221 -0.117136
v -0.133174 1.367226 -0.159284
v -0.713435 1.333550 -0.075124
v -0.734723 1.349680 -0.414603
v 0.122041 1.333549 -0.804717
v 0.610980 1.333549 0.206657
v -0.120948 1.367226 -0.047140
v 0.189382 1.329562 0.556520
v -0.038706 1.379562 0.047894
v 0.539080 1.354221 0.490139
v 0.071249 1.367226 -0.216196
v 0.621515 1.333549 0.185663
v 0.073448 1.367226 -0.017069
v -0.024861 1.367226 0.011961
v -0.713863 1.329562 -0.086861
vt 0.356670 0.344102
vt 0.276996 0.363101
vt 0.262386 0.344250
vt 0.823146 0.243897
vt 0.802553 0.296146
vt 0.742608 0.243929
vt 0.728232 0.428979
vt 0.713732 0.606375
vt 0.633206 0.606317
vt 0.578814 0.699714
vt 0.534877 0.699702
vt 0.511360 0.640259
vt 0.822989 0.436447
vt 0.837058 0.613696
vt 0.728232 0.613690
vt 0.072772 0.659663
vt 0.059565 0.682081
vt 0.056311 0.682076
vt 0.786835 0.318106
vt 0.780326 0.318108
vt 0.534472 0.025207
vt 0.578397 0.025169
vt 0.602876 0.084848
vt 0.247814 0.439068
vt 0.262689 0.382463
vt 0.371730 0.439055
vt 0.422088 0.385469
vt 0.434990 0.362801
vt 0.438246 0.362803
vt 0.094262 0.606903
vt 0.013739 0.606777
vt 0.460679 0.385491
vt 0.481520 0.438553
vt 0.741338 0.016942
vt 0.824149 0.016909
vt 0.836987 0.066556
vt 0.069027 0.000074
vt 0.083696 0.025891
vt 0.065320 0.000076
vt 0.763971 0.296162
vt 0.138884 0.344305
vt 0.233184 0.344432
vt 0.218525 0.363222
vt 0.692266 0.658727
vt 0.653690 0.658699
vt 0.763501 0.384340
vt 0.776358 0.362504
vt 0.779613 0.362504
vt 0.668736 0.318637
vt 0.655495 0.296344
vt 0.671990 0.318633
vt 0.790090 0.318104
vt 0.495547 0.286992
vt 0.511186 0.084929
vt 0.264047 0.640911
vt 0.548531 0.000013
vt 0.552236 0.000010
vt 0.510099 0.343407
vt 0.589370 0.362427
vt 0.524691 0.362485
vt 0.555867 0.000035
vt 0.559647 0.000003
vt 0.138278 0.606596
vt 0.123919 0.429008
vt 0.232730 0.428882
vt 0.277558 0.363233
vt 0.309949 0.363101
vt 0.198145 0.659523
vt 0.182356 0.682166
vt 0.175846 0.682174
vt 0.632241 0.379322
vt 0.715039 0.379382
vt 0.410536 0.337361
vt 0.454458 0.337417
vt 0.428264 0.362724
vt 0.754471 0.000097
vt 0.678497 0.318624
vt 0.675314 0.318635
vt 0.783629 0.318056
vt 0.263489 0.085898
vt 0.286825 0.025682
vt 0.355185 0.085755
vt 0.247814 0.288139
vt 0.137037 0.379804
vt 0.386724 0.616105
vt 0.400965 0.438507
vt 0.218824 0.606503
vt 0.365214 0.844565
vt 0.352138 0.860560
vt 0.350708 0.845945
vt 0.357004 0.382454
vt 0.604377 0.343324
vt 0.123919 0.288243
vt 0.140322 0.086030
vt 0.232033 0.086154
vt 0.341679 0.363000
vt 0.552832 0.724661
vt 0.619447 0.428900
vt 0.194343 0.000070
vt 0.208558 0.025815
vt 0.190637 0.000066
vt 0.183225 0.000056
vt 0.186983 0.000000
vt 0.604498 0.381823
vt 0.510195 0.381795
vt 0.524869 0.362604
vt 0.332065 0.700252
vt 0.288122 0.700257
vt 0.742432 0.436443
vt 0.589565 0.362622
vt 0.057906 0.000079
vt 0.061596 0.000000
vt 0.159559 0.659568
vt 0.645067 0.362540
vt 0.304630 0.000046
vt 0.312041 0.000035
vt 0.619447 0.438390
vt 0.603074 0.640286
vt 0.150143 0.363288
vt 0.206960 0.363222
vt 0.782879 0.362573
vt 0.786124 0.362505
vt 0.164623 0.025756
vt 0.179519 0.000051
vt 0.480494 0.019114
vt 0.386222 0.018994
vt 0.400798 0.000000
vt 0.330753 0.025613
vt 0.465473 0.000082
vt 0.247814 0.288409
vt 0.109064 0.344493
vt 0.014746 0.344538
vt 0.000000 0.288585
vt 0.560245 0.724663
vt 0.094211 0.363254
vt 0.741265 0.663407
vt 0.824095 0.663411
vt 0.811123 0.680303
vt 0.034197 0.659603
vt 0.049803 0.682065
vt 0.435673 0.362733
vt 0.300924 0.000052
vt 0.619414 0.286882
vt 0.371689 0.075301
vt 0.495547 0.075459
vt 0.153831 0.363135
vt 0.444756 0.362807
vt 0.495547 0.616167
vt 0.431888 0.362725
vt 0.107722 0.086293
vt 0.123919 0.288525
vt 0.313952 0.725135
vt 0.310268 0.725060
vt 0.306538 0.725136
vt 0.728186 0.066599
vt 0.371689 0.287945
vt 0.029505 0.363286
vt 0.000000 0.429182
vt 0.012783 0.379868
vt 0.108780 0.429353
vt 0.632633 0.016766
vt 0.715422 0.016650
vt 0.728186 0.066057
vt 0.219856 0.379708
vt 0.342263 0.363226
vt 0.326086 0.363228
vt 0.563951 0.724664
vt 0.424559 0.362719
vt 0.694067 0.296290
vt 0.789379 0.362505
vt 0.802093 0.384342
vt 0.355774 0.640901
vt 0.366645 0.859181
vt 0.679080 0.680778
vt 0.675826 0.680776
vt 0.563352 0.000000
vt 0.549126 0.724660
vt 0.619414 0.066210
vt 0.317658 0.725135
vt 0.179138 0.682229
vt 0.702621 0.000000
vt 0.387294 0.277450
vt 0.811283 0.000074
vt 0.633964 0.243721
vt 0.302832 0.725136
vt 0.015994 0.086337
vt 0.039752 0.025912
vt 0.308266 0.000000
vt 0.482607 0.665308
vt 0.754298 0.680300
vt 0.669318 0.680771
vt 0.439378 0.362738
vt 0.495547 0.438354
vt 0.046549 0.682060
vt 0.052992 0.682098
vt 0.448011 0.362809
vt 0.478978 0.277566
vt 0.095578 0.379998
vt 0.025600 0.363286
vt 0.714480 0.243608
vt 0.681751 0.318619
vt 0.315746 0.000029
vt 0.701871 0.362582
vt 0.666064 0.680769
vt 0.556492 0.724598
vt 0.777071 0.318110
vt 0.185610 0.682162
vt 0.082401 0.363375
vt 0.441519 0.362738
vt 0.399779 0.665260
vt 0.054200 0.000081
vt 0.645823 0.000080
vt 0.172591 0.682177
vt 0.469654 0.681773
vt 0.412830 0.681740
vt 0.672510 0.680740
vn -0.2489 0.9685 0.0000
vn -0.3745 0.9272 0.0000
vn 0.0291 0.9906 -0.1335
vn 0.0782 0.9300 -0.3592
vn 0.0686 0.9976 -0.0025
vn -0.1365 0.9906 0.0050
vn -0.3373 0.9300 -0.1463
vn -0.1253 0.9906 -0.0544
vn -0.0876 0.9906 -0.1048
vn 0.0440 0.9976 0.0526
vn -0.2147 0.9300 0.2984
vn -0.3016 0.8564 0.4192
vn -0.3716 0.7715 0.5165
vn 0.1353 0.7715 -0.6217
vn 0.2254 0.9300 -0.2904
vn 0.0838 0.9906 -0.1079
vn 0.0170 0.9976 0.0665
vn 0.0870 0.9653 0.2460
vn 0.1041 0.9300 0.3526
vn 0.1462 0.8564 0.4952
vn 0.1802 0.7715 0.6102
vn -0.0798 0.9906 0.1109
vn 0.0387 0.9906 0.1310
vn -0.0529 0.9685 0.2432
vn -0.0146 0.9976 0.0670
vn 0.3529 0.8564 0.3770
vn 0.2512 0.9300 0.2684
vn 0.4347 0.7715 0.4646
vn 0.0393 0.9685 -0.2458
vn 0.0591 0.9272 -0.3698
vn -0.3674 0.9300 0.0134
vn -0.2358 0.9300 -0.2820
vn -0.3312 0.8564 -0.3961
vn -0.4081 0.7715 -0.4881
vn 0.4659 0.8564 -0.2226
vn 0.3317 0.9300 -0.1585
vn 0.5741 0.7715 -0.2743
vn 0.1098 0.8564 -0.5045
vn -0.0421 0.9976 0.0542
vn -0.0339 0.9906 -0.1323
vn 0.3166 0.8564 -0.4079
vn 0.3901 0.7715 -0.5026
vn -0.1526 0.9685 0.1966
vn -0.2296 0.9272 0.2959
vn 0.6131 0.0001 -0.7900
vn 0.1221 0.9906 0.0613
vn -0.0613 0.9976 -0.0308
vn 0.1921 0.9495 0.2479
vn 0.0938 0.8979 0.4301
vn 0.3286 0.9300 0.1649
vn 0.5687 0.7715 0.2854
vn 0.5686 0.7715 0.2854
vn 0.2487 0.9685 -0.0091
vn -0.3224 0.9300 0.1767
vn -0.5579 0.7715 0.3059
vn -0.0797 0.9272 0.3660
vn 0.9023 -0.0000 -0.4311
vn 0.2127 0.0000 -0.9771
vn 0.1366 0.9906 0.0000
vn 0.3676 0.9300 0.0000
vn -0.0686 0.9976 0.0000
vn -0.2224 0.9685 -0.1116
vn -0.0194 0.9976 -0.0658
vn 0.1891 0.6473 0.7384
vn 0.2481 0.0000 0.9687
vn 0.0482 0.9671 0.2499
vn 0.0108 0.9976 -0.0678
vn -0.0216 0.9906 0.1349
vn -0.5837 0.7715 -0.2532
vn -0.0815 0.8563 0.5099
vn -0.0580 0.9300 0.3630
vn -0.1004 0.7715 0.6283
vn -0.1005 0.7715 0.6283
vn -0.1579 0.0000 0.9875
vn 0.2283 0.9685 0.0990
vn 0.3436 0.9272 0.1490
vn -0.0912 0.9300 -0.3561
vn 0.6833 0.0001 0.7301
vn 0.3743 0.9272 -0.0136
vn 0.6363 0.7715 0.0000
vn 0.6362 0.7715 0.0000
vn 0.0629 0.9976 0.0273
vn -0.3347 0.9272 -0.1680
vn -0.6415 0.0001 -0.7671
vn -0.0815 0.8564 0.5099
vn 0.2182 0.9685 -0.1196
vn 0.3284 0.9272 -0.1800
vn -0.1700 0.9685 -0.1817
vn -0.0469 0.9976 -0.0501
vn -0.2559 0.9272 -0.2735
vn 0.1596 0.9685 0.1909
vn 0.2402 0.9272 0.2873
vn 0.5164 0.8564 0.0000
vn 0.0602 0.9976 -0.0330
vn -0.8769 -0.0001 0.4807
vn 0.0933 0.9906 0.0998
vn -0.1579 0.7715 -0.6164
vn -0.2481 0.0000 -0.9687
vn 0.0401 0.9976 -0.0557
vn 0.1453 0.9685 -0.2020
vn -0.2246 0.9685 0.1073
vn -0.0619 0.9976 0.0296
vn -0.0573 0.8537 0.5177
vn -0.4737 0.8564 -0.2054
vn -0.4528 0.8564 0.2483
vn -0.5160 0.8564 0.0188
vn -0.6358 0.7715 0.0232
vn -0.4737 0.8564 -0.2055
vn -0.1281 0.8564 -0.5002
vn 0.8938 0.0000 0.4485
vn -0.3379 0.9272 0.1614
vn -0.1198 0.9906 0.0657
vn 0.1233 0.9906 -0.0589
vn 1.0000 0.0000 0.0000
vn -0.0705 0.9685 -0.2387
vn -0.4528 0.8564 0.2482
vn -0.3016 0.8564 0.4191
vn -0.5840 0.0001 0.8118
vn 0.2187 0.9272 -0.3040
vn -0.9174 0.0000 -0.3980
vn 0.1098 0.8564 -0.5046
vn 0.4615 0.8564 0.2315
vn 0.2832 0.0000 0.9591
vn 0.3528 0.8564 0.3770
vn 0.4615 0.8564 0.2316
vn -0.1061 0.9272 -0.3592
vn -0.9993 0.0001 0.0364
s 1
f 1/1/1 2/2/2 3/3/1
f 4/4/3 5/5/4 6/6/3
f 7/7/5 8/8/6 9/9/6
f 10/10/7 11/11/7 12/12/8
f 13/13/9 14/14/10 15/15/10
f 16/16/11 17/17/12 18/18/13
f 5/5/4 19/19/14 20/20/14
f 21/21/15 22/22/15 23/23/16
f 24/24/17 25/25/18 26/26/17
f 27/27/19 28/28/20 29/29/21
f 30/30/22 16/16/11 31/31/22
f 27/27/19 32/32/19 33/33/23
f 34/34/24 35/35/24 36/36/25
f 37/37/26 38/38/27 39/39/28
f 40/40/4 5/5/4 20/20/14
f 41/41/29 42/42/29 43/43/30
f 44/44/31 45/45/31 9/9/6
f 46/46/32 47/47/33 48/48/34
f 49/49/35 50/50/36 51/51/37
f 5/5/4 52/52/38 19/19/14
f 53/53/39 54/54/16 23/23/16
f 55/55/40 24/24/17 26/26/17
f 21/21/15 56/56/41 57/57/42
f 58/58/43 59/59/44 60/60/44
f 57/57/42 61/61/45 62/62/42
f 63/63/46 64/64/47 65/65/47
f 25/25/18 66/66/48 67/67/49
f 68/68/50 69/69/51 70/70/52
f 71/71/53 72/72/53 7/7/5
f 73/73/54 74/74/54 75/75/55
f 35/35/24 34/34/24 76/76/56
f 77/77/37 78/78/57 51/51/37
f 19/19/14 79/79/58 20/20/14
f 80/80/59 81/81/60 82/82/59
f 83/83/61 80/80/59 82/82/59
f 64/64/47 84/84/62 65/65/47
f 85/85/63 86/86/23 33/33/23
f 65/65/47 87/87/46 63/63/46
f 88/88/64 89/89/65 90/90/65
f 25/25/18 91/91/66 26/26/17
f 92/92/43 58/58/43 53/53/39
f 93/93/67 94/94/68 95/95/68
f 1/1/1 96/96/2 2/2/2
f 11/11/7 10/10/7 97/97/69
f 98/98/5 71/71/53 7/7/5
f 99/99/70 100/100/71 101/101/72
f 102/102/73 103/103/74 101/101/72
f 5/5/4 40/40/4 6/6/3
f 104/104/75 105/105/75 106/106/76
f 107/107/77 108/108/77 55/55/40
f 15/15/10 109/109/9 13/13/9
f 104/104/75 106/106/76 110/110/76
f 111/111/28 112/112/78 39/39/28
f 68/68/50 113/113/50 63/63/46
f 1/1/1 3/3/1 83/83/61
f 72/72/53 71/71/53 114/114/79
f 81/81/60 115/115/80 116/116/81
f 117/117/82 118/118/8 12/12/8
f 84/84/62 119/119/83 120/120/83
f 48/48/34 121/121/84 122/122/34
f 123/123/71 124/124/85 102/102/73
f 58/58/43 92/92/43 59/59/44
f 125/125/86 126/126/86 127/127/87
f 81/81/60 128/128/60 82/82/59
f 125/125/86 127/127/87 129/129/87
f 95/95/68 130/130/67 93/93/67
f 87/87/46 68/68/50 63/63/46
f 131/131/88 132/132/88 133/133/89
f 86/86/23 27/27/19 33/33/23
f 10/10/7 134/134/69 97/97/69
f 132/132/88 131/131/88 135/135/90
f 118/118/8 10/10/7 12/12/8
f 136/136/91 137/137/91 138/138/92
f 139/139/11 16/16/11 140/140/13
f 74/74/54 141/141/55 75/75/55
f 81/81/60 142/142/93 115/115/80
f 23/23/16 143/143/39 53/53/39
f 144/144/94 126/126/86 145/145/94
f 41/41/29 43/43/30 146/146/30
f 32/32/19 27/27/19 147/147/21
f 33/33/23 148/148/63 85/85/63
f 8/8/6 44/44/31 9/9/6
f 105/105/75 104/104/75 117/117/82
f 16/16/11 139/139/11 31/31/22
f 36/36/25 4/4/3 6/6/3
f 141/141/55 149/149/95 75/75/55
f 150/150/96 151/151/89 133/133/89
f 100/100/71 123/123/71 101/101/72
f 152/152/97 153/153/98 154/154/97
f 155/155/25 34/34/24 36/36/25
f 156/156/61 1/1/1 83/83/61
f 143/143/39 92/92/43 53/53/39
f 132/132/88 135/135/90 157/157/90
f 94/94/68 123/123/71 95/95/68
f 158/158/99 159/159/100 160/160/99
f 161/161/101 162/162/101 163/163/102
f 84/84/62 120/120/83 164/164/62
f 88/165/64 91/91/66 165/166/103
f 10/10/7 166/167/104 134/134/69
f 167/168/105 73/73/54 75/75/55
f 50/50/36 168/169/36 51/51/37
f 169/170/33 170/171/32 122/122/34
f 168/169/36 77/77/37 51/51/37
f 171/172/40 107/107/77 55/55/40
f 88/88/64 165/173/103 89/89/65
f 44/44/31 172/174/106 173/175/107
f 160/160/99 30/30/22 31/31/22
f 22/22/15 21/21/15 62/62/42
f 174/176/41 22/22/15 62/62/42
f 123/123/71 102/102/73 101/101/72
f 175/177/108 11/11/7 97/97/69
f 176/178/102 161/161/101 163/163/102
f 107/107/77 177/179/109 152/152/97
f 108/108/77 107/107/77 154/154/97
f 91/91/66 25/25/18 67/67/49
f 69/69/51 178/180/110 70/70/52
f 54/54/16 21/21/15 23/23/16
f 161/161/101 179/181/111 162/162/101
f 31/31/22 158/158/99 160/160/99
f 74/74/54 73/73/54 180/182/112
f 137/137/91 136/136/91 15/15/10
f 35/35/24 76/76/56 181/183/56
f 107/107/77 152/152/97 154/154/97
f 151/151/89 131/131/88 133/133/89
f 182/184/113 176/178/102 163/163/102
f 183/185/109 108/108/77 154/154/97
f 109/109/9 46/46/32 13/13/9
f 16/16/11 18/18/13 140/140/13
f 184/186/96 185/187/27 150/150/96
f 115/115/80 186/188/114 116/116/81
f 46/46/32 48/48/34 122/122/34
f 148/148/63 187/189/115 85/85/63
f 38/38/27 185/187/27 39/39/28
f 136/136/91 138/138/92 188/190/92
f 44/44/31 173/175/107 189/191/107
f 74/74/54 190/192/116 141/141/55
f 12/12/8 191/193/82 117/117/82
f 192/194/117 139/139/11 140/140/13
f 18/18/13 193/195/118 140/140/13
f 185/187/27 111/111/28 39/39/28
f 133/133/89 184/186/96 150/150/96
f 113/113/50 68/68/50 70/70/52
f 180/182/112 144/144/94 145/145/94
f 194/196/20 32/32/19 147/147/21
f 195/197/112 74/74/54 180/182/112
f 196/198/100 159/159/100 197/199/119
f 42/42/29 41/41/29 93/93/67
f 123/123/71 100/100/71 95/95/68
f 27/27/19 29/29/21 147/147/21
f 191/193/82 105/105/75 117/117/82
f 163/163/102 198/200/113 182/184/113
f 46/46/32 170/171/32 13/13/9
f 168/169/36 199/201/35 77/77/37
f 21/21/15 57/57/42 62/62/42
f 200/202/93 128/128/60 116/116/81
f 185/187/27 38/38/27 150/150/96
f 72/72/53 114/114/79 201/203/79
f 45/45/31 44/44/31 189/191/107
f 130/130/67 42/42/29 93/93/67
f 84/84/62 164/164/62 65/65/47
f 202/204/106 45/45/31 189/191/107
f 165/166/103 91/91/66 67/67/49
f 9/9/6 98/98/5 7/7/5
f 134/134/69 203/205/120 97/97/69
f 14/14/10 137/137/91 15/15/10
f 170/171/32 46/46/32 122/122/34
f 204/206/121 40/40/4 20/20/14
f 26/26/17 171/172/40 55/55/40
f 68/68/50 205/207/122 69/69/51
f 196/198/100 197/199/119 206/208/119
f 29/29/21 207/209/123 147/147/21
f 145/145/94 195/197/112 180/182/112
f 187/189/115 208/210/115 85/85/63
f 185/187/27 209/211/124 111/111/28
f 6/6/3 155/155/25 36/36/25
f 168/169/36 50/50/36 182/184/113
f 198/200/113 168/169/36 182/184/113
f 161/161/101 210/212/111 179/181/111
f 159/159/100 196/198/100 160/160/99
f 211/213/125 113/113/50 70/70/52
f 128/128/60 81/81/60 116/116/81
f 82/82/59 156/156/61 83/83/61
f 208/210/115 212/214/126 213/215/126
f 173/175/107 214/216/127 189/191/107
f 208/210/115 187/189/115 212/214/126
f 126/126/86 125/125/86 145/145/94
