# Blender v2.90.0 OBJ File: ''
# www.blender.org
o Archway_Cube.001
v 2.024656 -0.102938 0.272408
v 2.024656 4.559819 0.272408
v -2.024656 -0.102938 0.272408
v -2.024656 4.559819 0.272408
v 2.024656 -0.102938 -0.272408
v 2.024656 4.559819 -0.272408
v -2.024656 -0.102938 -0.272408
v -2.024656 4.559819 -0.272408
v -1.920251 4.412321 0.251275
v -1.920251 4.412321 -0.251275
v 1.920251 4.412322 0.251275
v 1.920251 4.412322 -0.251275
v 1.883354 4.745456 0.251275
v 1.883354 4.745456 -0.251275
v 1.774080 5.065787 0.251275
v 1.774080 5.065787 -0.251275
v 1.596630 5.361006 0.251275
v 1.596630 5.361006 -0.251275
v 1.357822 5.619768 0.251275
v 1.357822 5.619768 -0.251275
v 1.066833 5.832128 0.251275
v 1.066833 5.832128 -0.251275
v 0.734847 5.989925 0.251275
v 0.734847 5.989925 -0.251275
v 0.374621 6.087097 0.251275
v 0.374621 6.087097 -0.251275
v -0.000002 6.119907 0.251275
v -0.000002 6.119907 -0.251275
v -0.374624 6.087096 0.251275
v -0.374624 6.087096 -0.251275
v -0.734850 5.989924 0.251275
v -0.734850 5.989924 -0.251275
v -1.066836 5.832126 0.251275
v -1.066836 5.832126 -0.251275
v -1.357824 5.619765 0.251275
v -1.357824 5.619765 -0.251275
v -1.596632 5.361003 0.251275
v -1.596632 5.361003 -0.251275
v -1.774082 5.065784 0.251275
v -1.774082 5.065784 -0.251275
v -1.883355 4.745452 0.251275
v -1.883355 4.745452 -0.251275
v 1.910814 4.327119 -0.251275
v 1.910814 4.327119 0.251275
v -1.910814 4.327119 -0.251275
v -1.910815 4.327119 0.251275
v 1.437305 -0.102938 -0.272408
v 1.437305 4.599355 0.251275
v 1.437305 4.599355 -0.251275
v -1.437305 4.599355 0.251275
v -1.437305 4.327119 0.251275
v -1.437305 4.599355 -0.251275
v -1.437305 4.327119 -0.251275
v -1.437305 4.559819 -0.272408
v -1.437305 1.252900 0.272408
v -1.437305 4.559819 0.272408
v -1.437305 -0.102938 -0.272408
v -1.437305 -0.102938 0.272408
v 1.437305 4.327119 0.251275
v 1.437305 4.327119 -0.251275
v 1.437305 4.559819 -0.272408
v 1.437305 -0.102938 0.272408
v 1.437305 4.559819 0.272408
v 1.424639 4.327119 0.251275
v 1.408642 4.482553 -0.251275
v 1.424639 4.327119 -0.251275
v 1.408642 4.482553 0.251275
v 1.424639 4.327119 -0.249061
v 1.326912 4.740383 -0.251275
v 1.371616 4.599355 -0.251275
v 1.326912 4.740383 0.251275
v 1.373531 4.593315 -0.251275
v 1.371617 4.599355 0.251275
v 1.373531 4.593316 0.251275
v 1.194189 4.978001 -0.251275
v 1.194189 4.978001 0.251275
v 1.015574 5.186275 -0.251274
v 1.015574 5.186275 0.251275
v -1.326913 4.740381 -0.251275
v -1.326913 4.740381 0.251275
v -1.194190 4.977999 -0.251274
v -1.194190 4.977999 0.251275
v -1.408642 4.482551 -0.251275
v -1.408642 4.482551 0.251275
v -1.424514 4.328331 0.251275
v -1.424640 4.327119 0.251275
v -1.424640 4.327119 0.249061
v -1.371616 4.599355 -0.251275
v -1.424515 4.328331 -0.251275
v -1.424640 4.327119 -0.251275
v -1.371617 4.599355 0.251275
v -0.549626 5.484208 -0.251275
v -0.549626 5.484208 0.251275
v -1.015576 5.186273 -0.251275
v -1.015576 5.186273 0.251275
v 0.549624 5.484209 -0.251275
v 0.549624 5.484209 0.251275
v -0.280198 5.562420 -0.251275
v -0.280198 5.562420 0.251275
v 0.280195 5.562421 -0.251275
v 0.280195 5.562421 0.251275
v -0.797933 5.357199 -0.251275
v -0.797933 5.357199 0.251275
v 0.797931 5.357200 -0.251274
v 0.797931 5.357200 0.251275
v -0.000001 5.588830 -0.251275
v -0.000001 5.588830 0.251275
vt 0.625000 0.000000
vt 0.375000 0.036262
vt 0.375000 0.000000
vt 0.625000 0.250000
vt 0.375000 0.500000
vt 0.375000 0.250000
vt 0.625000 0.500000
vt 0.375000 0.536262
vt 0.625000 0.750000
vt 0.375000 1.000000
vt 0.375000 0.750000
vt 0.125000 0.536262
vt 0.125000 0.500000
vt 0.875000 0.500000
vt 0.625000 0.536262
vt 1.000000 1.000000
vt 0.992007 0.500000
vt 1.000000 0.500000
vt 0.500000 1.000000
vt 0.468750 0.500000
vt 0.500000 0.500000
vt 0.468750 1.000000
vt 0.437500 0.500000
vt 0.406250 1.000000
vt 0.406250 0.500000
vt 0.375000 0.500000
vt 0.343750 1.000000
vt 0.343750 0.500000
vt 0.312500 0.500000
vt 0.281250 1.000000
vt 0.281250 0.500000
vt 0.250000 0.500000
vt 0.250000 1.000000
vt 0.218750 0.500000
vt 0.218750 1.000000
vt 0.187500 0.500000
vt 0.187500 1.000000
vt 0.156250 0.500000
vt 0.156250 1.000000
vt 0.125000 0.500000
vt 0.125000 1.000000
vt 0.093750 0.500000
vt 0.093750 1.000000
vt 0.062500 0.500000
vt 0.062500 1.000000
vt 0.031250 0.500000
vt 0.031250 1.000000
vt 0.000000 0.500000
vt 0.599347 0.181306
vt 0.617198 0.150272
vt 0.528269 0.158156
vt 0.084643 0.250000
vt 0.088354 0.285020
vt 0.010000 0.250000
vt 0.715454 0.522734
vt 0.784546 0.548076
vt 0.784546 0.522734
vt 0.507993 1.000000
vt 0.507993 0.500000
vt 0.715454 0.701924
vt 0.784546 0.727266
vt 0.784546 0.701924
vt 0.534051 0.340949
vt 0.497202 0.409051
vt 0.623926 0.409051
vt 0.447695 0.213738
vt 0.875000 0.713738
vt 0.625000 0.713738
vt 0.497202 0.840949
vt 0.623926 0.909051
vt 0.623926 0.840949
vt 0.375000 0.713738
vt 0.125000 0.750000
vt 0.125000 0.713738
vt 0.000000 0.000000
vt 0.000000 0.000000
vt 0.000000 0.000000
vt 0.000000 0.000000
vt 0.000000 0.000000
vt 0.000000 0.000000
vt 0.000000 0.000000
vt 0.000000 0.000000
vt 0.000000 0.000000
vt 0.000000 0.000000
vt 0.000000 0.000000
vt 0.000000 0.000000
vt 0.000000 0.000000
vt 0.000000 0.000000
vt 0.343750 0.793738
vt 0.375000 0.706262
vt 0.343750 0.706262
vt 0.093750 0.793738
vt 0.125000 0.706262
vt 0.093750 0.706262
vt 0.000000 0.000000
vt 0.000000 0.000000
vt 0.000000 0.000000
vt 0.218750 0.793738
vt 0.250000 0.706262
vt 0.218750 0.706262
vt 0.000000 0.000000
vt 0.000000 0.000000
vt 0.455325 0.706262
vt 0.454593 0.706262
vt 0.454593 0.793738
vt 0.156250 0.793738
vt 0.156250 0.706262
vt 0.187500 0.793738
vt 0.187500 0.706262
vt 0.062500 0.706262
vt 0.000000 0.000000
vt 0.000000 0.000000
vt 0.281250 0.793738
vt 0.312500 0.706262
vt 0.281250 0.706262
vt 0.375000 0.793738
vt 0.406250 0.706262
vt 0.437500 0.793738
vt 0.437500 0.706262
vt 0.013135 0.706647
vt 0.013135 0.793738
vt 0.013276 0.793738
vt 0.000000 0.000000
vt 0.468750 0.793738
vt 0.486865 0.793738
vt 0.486865 0.793353
vt 0.045407 0.793738
vt 0.045407 0.706262
vt 0.250000 0.793738
vt 0.000000 0.000000
vt 0.000000 0.000000
vt 0.625000 0.036262
vt 0.625000 1.000000
vt 0.875000 0.536262
vt 0.992007 1.000000
vt 0.437500 1.000000
vt 0.375000 1.000000
vt 0.312500 1.000000
vt 0.000000 1.000000
vt 0.703179 0.485389
vt 0.750000 0.490000
vt 0.723713 0.429640
vt 0.761975 0.488821
vt 0.761975 0.429640
vt 0.723713 0.421430
vt 0.703892 0.415842
vt 0.658156 0.471731
vt 0.670495 0.399254
vt 0.616663 0.449553
vt 0.550447 0.383337
vt 0.580295 0.419706
vt 0.641222 0.376930
vt 0.617198 0.349729
vt 0.514612 0.296822
vt 0.528269 0.341844
vt 0.599347 0.318694
vt 0.588354 0.285020
vt 0.514611 0.203179
vt 0.510000 0.250000
vt 0.588354 0.214980
vt 0.550447 0.116663
vt 0.616663 0.050447
vt 0.580294 0.080294
vt 0.670494 0.100746
vt 0.641222 0.123070
vt 0.703178 0.014612
vt 0.658156 0.028269
vt 0.723713 0.070360
vt 0.703891 0.084158
vt 0.761975 0.011179
vt 0.750000 0.010000
vt 0.761975 0.070360
vt 0.723713 0.078570
vt 0.584643 0.250000
vt 0.250000 0.010000
vt 0.261975 0.011179
vt 0.261975 0.070360
vt 0.223713 0.070360
vt 0.223713 0.078570
vt 0.203891 0.084158
vt 0.158156 0.028269
vt 0.203178 0.014612
vt 0.080294 0.080294
vt 0.116663 0.050447
vt 0.170494 0.100746
vt 0.141221 0.123070
vt 0.028269 0.158156
vt 0.050447 0.116663
vt 0.117198 0.150272
vt 0.014611 0.203179
vt 0.088354 0.214980
vt 0.099347 0.181306
vt 0.028269 0.341844
vt 0.014612 0.296822
vt 0.099347 0.318694
vt 0.080295 0.419706
vt 0.050447 0.383337
vt 0.141222 0.376930
vt 0.117198 0.349729
vt 0.158156 0.471731
vt 0.116663 0.449553
vt 0.170494 0.399254
vt 0.250000 0.490000
vt 0.203179 0.485389
vt 0.223713 0.429640
vt 0.203891 0.415842
vt 0.261975 0.429640
vt 0.261975 0.488821
vt 0.223713 0.421430
vt 0.715454 0.548076
vt 0.715454 0.727266
vt 0.623925 0.340949
vt 0.497202 0.340949
vt 0.375000 0.213738
vt 0.625000 0.213738
vt 0.875000 0.750000
vt 0.497202 0.909051
vt 0.000000 0.000000
vt 0.125000 0.793738
vt 0.000000 0.000000
vt 0.455325 0.793738
vt 0.468750 0.706262
vt 0.062500 0.793738
vt 0.312500 0.793738
vt 0.406250 0.793738
vt 0.031250 0.793738
vt 0.031250 0.706262
vt 0.013276 0.706262
vt 0.013135 0.706262
vt 0.486865 0.706262
vn 0.0000 0.0000 1.0000
vn -1.0000 0.0000 0.0000
vn -0.0000 0.0000 -1.0000
vn 1.0000 0.0000 0.0000
vn 0.0000 -1.0000 0.0000
vn 0.0000 1.0000 0.0000
vn -0.9939 -0.1101 0.0000
vn 0.9939 0.1101 0.0000
vn 0.9464 0.3229 0.0000
vn 0.8571 0.5152 0.0000
vn 0.7349 0.6782 0.0000
vn 0.5895 0.8078 0.0000
vn 0.4293 0.9032 0.0000
vn 0.2604 0.9655 0.0000
vn 0.0872 0.9962 0.0000
vn -0.0873 0.9962 0.0000
vn -0.2604 0.9655 0.0000
vn -0.4293 0.9032 0.0000
vn -0.5895 0.8078 0.0000
vn -0.7349 0.6782 0.0000
vn -0.8571 0.5152 0.0000
vn -0.9464 0.3229 0.0000
vn -0.9939 0.1101 0.0000
vn 0.9939 -0.1101 0.0000
vn -0.6176 -0.7865 0.0000
vn 0.7591 -0.6510 0.0000
vn 0.0938 -0.9956 0.0000
vn -0.9533 -0.3022 -0.0000
vn 0.6176 -0.7865 0.0000
vn 0.2788 -0.9604 0.0000
vn 0.8730 -0.4876 0.0000
vn -0.2788 -0.9604 0.0000
vn -0.7591 -0.6510 -0.0000
vn -0.8730 -0.4876 0.0000
vn -0.4554 -0.8903 0.0000
vn 0.9947 -0.1027 -0.0000
vn -0.9947 -0.1024 0.0000
vn 0.4554 -0.8903 0.0000
vn 0.9533 -0.3022 0.0000
vn -0.0938 -0.9956 0.0000
vn -0.9533 -0.3021 0.0000
vn 0.9947 -0.1024 0.0000
vn 0.9947 -0.1024 -0.0002
vn 0.9947 -0.1029 0.0000
s off
f 2/1/1 62/2/1 1/3/1
f 4/4/2 7/5/2 3/6/2
f 8/7/3 57/8/3 7/5/3
f 6/9/4 1/10/4 5/11/4
f 7/5/5 58/12/5 3/13/5
f 4/14/6 54/15/6 8/7/6
f 10/16/7 46/17/7 9/18/7
f 12/19/8 13/20/8 11/21/8
f 14/22/9 15/23/9 13/20/9
f 15/23/10 18/24/10 17/25/10
f 18/24/11 19/26/11 17/25/11
f 19/26/12 22/27/12 21/28/12
f 22/27/13 23/29/13 21/28/13
f 23/29/14 26/30/14 25/31/14
f 26/30/15 27/32/15 25/31/15
f 28/33/16 29/34/16 27/32/16
f 30/35/17 31/36/17 29/34/17
f 32/37/18 33/38/18 31/36/18
f 34/39/19 35/40/19 33/38/19
f 36/41/20 37/42/20 35/40/20
f 38/43/21 39/44/21 37/42/21
f 40/45/22 41/46/22 39/44/22
f 42/47/23 9/48/23 41/46/23
f 97/49/1 105/50/1 23/51/1
f 106/52/3 98/53/3 28/54/3
f 45/55/5 51/56/5 46/57/5
f 43/58/24 11/21/24 44/59/24
f 60/60/5 44/61/5 59/62/5
f 55/63/4 57/64/4 54/65/4
f 55/66/1 4/4/1 3/6/1
f 63/67/6 6/9/6 61/68/6
f 47/69/2 63/70/2 61/71/2
f 61/68/3 5/11/3 47/72/3
f 47/72/5 1/73/5 62/74/5
f 59/75/5 68/76/5 60/77/5
f 65/78/3 72/79/3 49/80/3
f 48/81/1 67/82/1 59/75/1
f 48/81/1 73/83/1 74/84/1
f 60/77/6 66/85/6 68/76/6
f 52/86/3 88/87/3 83/88/3
f 104/89/25 78/90/25 105/91/25
f 81/92/26 95/93/26 82/94/26
f 87/95/6 53/96/6 51/97/6
f 98/98/27 107/99/27 99/100/27
f 84/101/1 50/102/1 51/97/1
f 74/103/28 73/104/28 70/105/28
f 95/93/29 102/106/29 103/107/29
f 92/108/30 99/100/30 93/109/30
f 80/110/31 81/92/31 82/94/31
f 87/95/5 86/111/5 51/97/5
f 70/112/1 72/79/1 49/80/1
f 100/113/32 97/114/32 101/115/32
f 77/116/33 76/117/33 78/90/33
f 76/117/34 69/118/34 71/119/34
f 97/114/35 104/89/35 105/91/35
f 87/120/36 90/121/36 89/122/36
f 86/111/1 85/123/1 51/97/1
f 65/124/37 66/125/37 68/126/37
f 102/106/38 93/109/38 103/107/38
f 88/127/39 80/110/39 91/128/39
f 106/129/40 101/115/40 107/99/40
f 89/130/3 90/131/3 53/96/3
f 2/1/1 63/132/1 62/2/1
f 4/4/2 8/7/2 7/5/2
f 8/7/3 54/15/3 57/8/3
f 6/9/4 2/133/4 1/10/4
f 7/5/5 57/8/5 58/12/5
f 4/14/6 56/134/6 54/15/6
f 10/16/7 45/135/7 46/17/7
f 12/19/8 14/22/8 13/20/8
f 14/22/9 16/136/9 15/23/9
f 15/23/10 16/136/10 18/24/10
f 18/24/11 20/137/11 19/26/11
f 19/26/12 20/137/12 22/27/12
f 22/27/13 24/138/13 23/29/13
f 23/29/14 24/138/14 26/30/14
f 26/30/15 28/33/15 27/32/15
f 28/33/16 30/35/16 29/34/16
f 30/35/17 32/37/17 31/36/17
f 32/37/18 34/39/18 33/38/18
f 34/39/19 36/41/19 35/40/19
f 36/41/20 38/43/20 37/42/20
f 38/43/21 40/45/21 39/44/21
f 40/45/22 42/47/22 41/46/22
f 42/47/23 10/139/23 9/48/23
f 41/140/1 9/141/1 50/142/1
f 9/141/1 46/143/1 51/144/1
f 50/142/1 9/141/1 51/144/1
f 50/142/1 91/145/1 80/146/1
f 50/142/1 80/146/1 39/147/1
f 80/146/1 82/148/1 39/147/1
f 39/147/1 82/148/1 37/149/1
f 39/147/1 41/140/1 50/142/1
f 33/150/1 35/151/1 95/152/1
f 35/151/1 37/149/1 82/148/1
f 33/150/1 95/152/1 103/153/1
f 29/154/1 31/155/1 93/156/1
f 31/155/1 33/150/1 103/153/1
f 29/154/1 93/156/1 99/157/1
f 25/158/1 27/159/1 101/160/1
f 27/159/1 29/154/1 99/157/1
f 21/161/1 23/51/1 105/50/1
f 23/51/1 25/158/1 97/49/1
f 97/49/1 25/158/1 101/160/1
f 17/162/1 19/163/1 76/164/1
f 19/163/1 21/161/1 78/165/1
f 76/164/1 19/163/1 78/165/1
f 13/166/1 15/167/1 48/168/1
f 15/167/1 17/162/1 76/164/1
f 48/168/1 15/167/1 71/169/1
f 44/170/1 11/171/1 59/172/1
f 11/171/1 13/166/1 48/168/1
f 48/168/1 59/172/1 11/171/1
f 71/169/1 73/173/1 48/168/1
f 76/164/1 71/169/1 15/167/1
f 27/159/1 99/157/1 107/174/1
f 27/159/1 107/174/1 101/160/1
f 93/156/1 31/155/1 103/153/1
f 82/148/1 95/152/1 35/151/1
f 105/50/1 78/165/1 21/161/1
f 12/175/3 43/176/3 60/177/3
f 49/178/3 70/179/3 69/180/3
f 12/175/3 60/177/3 49/178/3
f 16/181/3 14/182/3 49/178/3
f 14/182/3 12/175/3 49/178/3
f 16/181/3 49/178/3 69/180/3
f 20/183/3 18/184/3 75/185/3
f 18/184/3 16/181/3 75/185/3
f 20/183/3 75/185/3 77/186/3
f 24/187/3 22/188/3 104/189/3
f 22/188/3 20/183/3 77/186/3
f 28/54/3 26/190/3 100/191/3
f 26/190/3 24/187/3 96/192/3
f 32/193/3 30/194/3 92/195/3
f 30/194/3 28/54/3 98/53/3
f 92/195/3 30/194/3 98/53/3
f 36/196/3 34/197/3 94/198/3
f 34/197/3 32/193/3 102/199/3
f 94/198/3 34/197/3 102/199/3
f 40/200/3 38/201/3 81/202/3
f 38/201/3 36/196/3 81/202/3
f 81/202/3 36/196/3 94/198/3
f 10/203/3 42/204/3 52/205/3
f 42/204/3 40/200/3 52/205/3
f 52/205/3 40/200/3 79/206/3
f 53/207/3 45/208/3 10/203/3
f 79/206/3 88/209/3 52/205/3
f 52/205/3 53/207/3 10/203/3
f 26/190/3 96/192/3 100/191/3
f 22/188/3 77/186/3 104/189/3
f 69/180/3 75/185/3 16/181/3
f 81/202/3 79/206/3 40/200/3
f 102/199/3 32/193/3 92/195/3
f 24/187/3 104/189/3 96/192/3
f 28/54/3 100/191/3 106/52/3
f 45/55/5 53/210/5 51/56/5
f 43/58/24 12/19/24 11/21/24
f 60/60/5 43/211/5 44/61/5
f 54/65/4 56/212/4 55/63/4
f 55/63/4 58/213/4 57/64/4
f 3/6/1 58/214/1 55/66/1
f 55/66/1 56/215/1 4/4/1
f 63/67/6 2/216/6 6/9/6
f 47/69/2 62/217/2 63/70/2
f 61/68/3 6/9/3 5/11/3
f 47/72/5 5/11/5 1/73/5
f 59/75/5 64/218/5 68/76/5
f 49/80/3 60/77/3 65/78/3
f 60/77/3 66/85/3 65/78/3
f 48/81/1 74/84/1 67/82/1
f 67/82/1 64/218/1 59/75/1
f 89/130/3 53/96/3 83/88/3
f 53/96/3 52/86/3 83/88/3
f 104/89/25 77/116/25 78/90/25
f 81/92/26 94/219/26 95/93/26
f 87/95/6 90/131/6 53/96/6
f 98/98/27 106/129/27 107/99/27
f 51/97/1 85/123/1 84/101/1
f 84/101/1 91/220/1 50/102/1
f 73/104/28 71/119/28 69/118/28
f 70/105/41 72/221/41 74/103/41
f 72/221/28 65/124/28 67/222/28
f 73/104/28 69/118/28 70/105/28
f 67/222/28 74/103/28 72/221/28
f 95/93/29 94/219/29 102/106/29
f 92/108/30 98/98/30 99/100/30
f 80/110/31 79/223/31 81/92/31
f 100/113/32 96/224/32 97/114/32
f 77/116/33 75/225/33 76/117/33
f 76/117/34 75/225/34 69/118/34
f 97/114/35 96/224/35 104/89/35
f 89/122/42 83/226/42 87/120/42
f 83/226/42 84/227/42 87/120/42
f 84/227/43 85/228/43 87/120/43
f 85/228/44 86/229/44 87/120/44
f 64/230/37 67/222/37 68/126/37
f 67/222/37 65/124/37 68/126/37
f 102/106/38 92/108/38 93/109/38
f 91/128/39 84/227/39 83/226/39
f 88/127/39 79/223/39 80/110/39
f 91/128/39 83/226/39 88/127/39
f 106/129/40 100/113/40 101/115/40
