# Blender v2.90.0 OBJ File: 'decorations.blend'
# www.blender.org
o Cube_Cube.100
v -0.040321 -0.030506 0.103950
v -0.037863 0.107697 0.149835
v -0.040321 -0.028835 0.099818
v -0.037863 0.109266 0.145956
v 0.040321 -0.030506 0.103950
v 0.037863 0.107697 0.149835
v 0.040321 -0.028835 0.099818
v 0.037863 0.109266 0.145956
v -0.027734 0.220984 0.198692
v -0.027734 0.222133 0.195850
v 0.027734 0.222133 0.195850
v 0.027734 0.220984 0.198692
v -0.013560 0.313748 0.240613
v -0.013560 0.314310 0.239223
v 0.013560 0.314310 0.239223
v 0.013560 0.313748 0.240613
v -0.001633 0.368176 0.268963
v -0.001633 0.368243 0.268795
v 0.001633 0.368243 0.268795
v 0.001633 0.368176 0.268963
v -0.127579 -0.025384 0.026324
v -0.156152 0.070720 0.040628
v -0.124944 -0.024223 0.025177
v -0.153679 0.071811 0.039551
v -0.105196 -0.025384 0.077741
v -0.135134 0.070720 0.088909
v -0.102561 -0.024223 0.076594
v -0.132660 0.071811 0.087832
v -0.184492 0.149498 0.060646
v -0.182680 0.150297 0.059857
v -0.167284 0.150297 0.095223
v -0.169096 0.149498 0.096012
v -0.207285 0.214004 0.081319
v -0.206399 0.214395 0.080933
v -0.198872 0.214395 0.098225
v -0.199758 0.214004 0.098610
v -0.222050 0.251852 0.096792
v -0.221944 0.251900 0.096746
v -0.221037 0.251900 0.098828
v -0.221144 0.251853 0.098874
v -0.093714 -0.027701 -0.110553
v -0.121512 0.087241 -0.136779
v -0.091344 -0.026312 -0.108064
v -0.119286 0.088546 -0.134443
v -0.142285 -0.027701 -0.064301
v -0.167121 0.087241 -0.093348
v -0.139915 -0.026312 -0.061812
v -0.164896 0.088546 -0.091011
v -0.155634 0.181461 -0.160397
v -0.154004 0.182417 -0.158685
v -0.187412 0.182417 -0.126872
v -0.189042 0.181461 -0.128583
v -0.188214 0.258612 -0.177516
v -0.187417 0.259079 -0.176679
v -0.203751 0.259079 -0.161124
v -0.204548 0.258612 -0.161961
v -0.211658 0.303880 -0.187750
v -0.211562 0.303936 -0.187649
v -0.213528 0.303936 -0.185777
v -0.213624 0.303880 -0.185877
v 0.039058 -0.033312 -0.074397
v 0.043022 0.093000 -0.116208
v 0.038501 -0.031785 -0.070663
v 0.042499 0.094434 -0.112700
v -0.033839 -0.033312 -0.085269
v -0.025431 0.093000 -0.126417
v -0.034396 -0.031785 -0.081535
v -0.025954 0.094434 -0.122909
v 0.040453 0.196540 -0.161738
v 0.040070 0.197590 -0.159169
v -0.010071 0.197590 -0.166647
v -0.009688 0.196540 -0.169216
v 0.033292 0.281322 -0.201543
v 0.033104 0.281835 -0.200287
v 0.008589 0.281835 -0.203943
v 0.008776 0.281322 -0.205199
v 0.026332 0.331067 -0.228779
v 0.026309 0.331129 -0.228627
v 0.023358 0.331129 -0.229068
v 0.023380 0.331067 -0.229219
v 0.093472 -0.030646 0.026583
v 0.126220 0.073068 0.015779
v 0.090480 -0.029393 0.027396
v 0.123410 0.074245 0.016542
v 0.077613 -0.030646 -0.031819
v 0.111328 0.073068 -0.039062
v 0.074621 -0.029393 -0.031006
v 0.108518 0.074245 -0.038299
v 0.159611 0.158083 -0.001164
v 0.157553 0.158945 -0.000605
v 0.146645 0.158945 -0.040776
v 0.148703 0.158083 -0.041335
v 0.187183 0.227696 -0.019673
v 0.186177 0.228118 -0.019400
v 0.180843 0.228118 -0.039041
v 0.181850 0.227696 -0.039314
v 0.205369 0.268542 -0.033886
v 0.205248 0.268592 -0.033854
v 0.204606 0.268592 -0.036218
v 0.204727 0.268542 -0.036251
vt 0.625000 0.250000
vt 0.375000 0.500000
vt 0.375000 0.250000
vt 0.625000 0.750000
vt 0.375000 1.000000
vt 0.375000 0.750000
vt 0.625000 1.000000
vt 0.625000 1.000000
vt 0.625000 0.500000
vt 0.625000 0.500000
vt 0.625000 0.750000
vt 0.625000 1.000000
vt 0.625000 1.000000
vt 0.625000 0.750000
vt 0.625000 0.250000
vt 0.625000 0.500000
vt 0.625000 0.250000
vt 0.625000 0.500000
vt 0.375000 0.250000
vt 0.625000 0.500000
vt 0.375000 0.500000
vt 0.625000 0.750000
vt 0.375000 1.000000
vt 0.375000 0.750000
vt 0.625000 1.000000
vt 0.625000 0.750000
vt 0.625000 1.000000
vt 0.625000 0.250000
vt 0.625000 0.500000
vt 0.625000 1.000000
vt 0.625000 0.750000
vt 0.625000 1.000000
vt 0.625000 0.750000
vt 0.625000 0.250000
vt 0.625000 0.500000
vt 0.625000 0.250000
vt 0.625000 0.500000
vt 0.375000 0.250000
vt 0.625000 0.500000
vt 0.375000 0.500000
vt 0.625000 0.750000
vt 0.375000 1.000000
vt 0.375000 0.750000
vt 0.625000 1.000000
vt 0.625000 0.750000
vt 0.625000 1.000000
vt 0.625000 0.250000
vt 0.625000 0.500000
vt 0.625000 1.000000
vt 0.625000 0.750000
vt 0.625000 1.000000
vt 0.625000 0.750000
vt 0.625000 0.250000
vt 0.625000 0.500000
vt 0.625000 0.250000
vt 0.625000 0.500000
vt 0.625000 0.250000
vt 0.375000 0.500000
vt 0.375000 0.250000
vt 0.375000 0.750000
vt 0.625000 1.000000
vt 0.375000 1.000000
vt 0.625000 0.750000
vt 0.625000 1.000000
vt 0.625000 0.500000
vt 0.625000 0.250000
vt 0.625000 0.500000
vt 0.625000 0.750000
vt 0.625000 1.000000
vt 0.625000 1.000000
vt 0.625000 0.750000
vt 0.625000 0.250000
vt 0.625000 0.500000
vt 0.625000 0.250000
vt 0.625000 0.500000
vt 0.625000 0.250000
vt 0.375000 0.500000
vt 0.375000 0.250000
vt 0.375000 0.750000
vt 0.625000 1.000000
vt 0.375000 1.000000
vt 0.625000 0.750000
vt 0.625000 1.000000
vt 0.625000 0.500000
vt 0.625000 0.250000
vt 0.625000 0.500000
vt 0.625000 0.750000
vt 0.625000 1.000000
vt 0.625000 1.000000
vt 0.625000 0.750000
vt 0.625000 0.250000
vt 0.625000 0.500000
vt 0.625000 0.250000
vt 0.625000 0.500000
vt 0.625000 0.750000
vt 0.625000 0.250000
vt 0.625000 0.250000
vt 0.625000 0.250000
vt 0.625000 0.750000
vt 0.625000 0.750000
vn 0.0000 0.3596 -0.9331
vn 0.0000 0.3168 -0.9485
vn 0.0000 -0.3546 0.9350
vn 0.0000 -0.3151 0.9490
vn 0.0000 -0.4033 0.9150
vn 0.0000 0.4143 -0.9101
vn 0.0000 -0.4344 0.9007
vn 0.0000 -0.4620 0.8869
vn 0.0000 0.4505 -0.8927
vn 0.0000 0.4808 -0.8768
vn 0.8696 0.3168 -0.3786
vn 0.8556 0.3596 -0.3724
vn -0.8573 -0.3546 0.3732
vn -0.8702 -0.3151 0.3788
vn -0.8390 -0.4033 0.3652
vn 0.8345 0.4143 -0.3633
vn -0.8259 -0.4344 0.3595
vn -0.8132 -0.4620 0.3540
vn 0.8185 0.4505 -0.3563
vn 0.8039 0.4808 -0.3500
vn 0.6540 0.3168 0.6868
vn 0.6435 0.3596 0.6757
vn -0.6448 -0.3546 -0.6771
vn -0.6545 -0.3151 -0.6873
vn -0.6310 -0.4033 -0.6626
vn 0.6276 0.4143 0.6591
vn -0.6211 -0.4344 -0.6523
vn -0.6116 -0.4620 -0.6423
vn 0.6156 0.4505 0.6465
vn 0.6047 0.4808 0.6350
vn -0.1376 0.3596 0.9229
vn -0.1399 0.3168 0.9381
vn 0.1400 -0.3151 -0.9387
vn 0.1379 -0.3546 -0.9248
vn 0.1350 -0.4033 -0.9050
vn -0.1343 0.4143 0.9002
vn 0.1328 -0.4344 -0.8909
vn 0.1308 -0.4620 -0.8772
vn -0.1317 0.4505 0.8830
vn -0.1293 0.4808 0.8672
vn -0.9005 0.3596 0.2445
vn -0.9153 0.3168 0.2485
vn 0.9159 -0.3151 -0.2487
vn 0.9023 -0.3546 -0.2450
vn 0.8831 -0.4033 -0.2398
vn -0.8783 0.4143 0.2385
vn 0.8692 -0.4344 -0.2360
vn 0.8559 -0.4620 -0.2324
vn -0.8615 0.4505 0.2339
vn -0.8462 0.4808 0.2298
s 1
f 4/1/1 7/2/2 3/3/2
f 6/4/3 1/5/4 5/6/4
f 6/4/3 9/7/5 2/8/3
f 4/1/1 11/9/6 8/10/1
f 16/11/7 17/12/8 13/13/7
f 12/14/5 13/13/7 9/7/5
f 10/15/6 15/16/9 11/9/6
f 14/17/9 19/18/10 15/16/9
f 23/19/11 28/20/12 27/21/11
f 26/22/13 21/23/14 25/24/14
f 22/25/13 32/26/15 29/27/15
f 24/28/12 31/29/16 28/20/12
f 33/30/17 40/31/18 37/32/18
f 29/27/15 36/33/17 33/30/17
f 30/34/16 35/35/19 31/29/16
f 34/36/19 39/37/20 35/35/19
f 43/38/21 48/39/22 47/40/21
f 46/41/23 41/42/24 45/43/24
f 42/44/23 52/45/25 49/46/25
f 44/47/22 51/48/26 48/39/22
f 53/49/27 60/50/28 57/51/28
f 49/46/25 56/52/27 53/49/27
f 50/53/26 55/54/29 51/48/26
f 54/55/29 59/56/30 55/54/29
f 64/57/31 67/58/32 63/59/32
f 65/60/33 62/61/34 61/62/33
f 66/63/34 69/64/35 62/61/34
f 68/65/31 70/66/36 71/67/36
f 76/68/37 77/69/38 73/70/37
f 72/71/35 73/70/37 69/64/35
f 71/67/36 74/72/39 75/73/39
f 75/73/39 78/74/40 79/75/40
f 84/76/41 87/77/42 83/78/42
f 85/79/43 82/80/44 81/81/43
f 86/82/44 89/83/45 82/80/44
f 88/84/41 90/85/46 91/86/46
f 96/87/47 97/88/48 93/89/47
f 92/90/45 93/89/47 89/83/45
f 91/86/46 94/91/49 95/92/49
f 95/92/49 98/93/50 99/94/50
f 4/1/1 8/10/1 7/2/2
f 6/4/3 2/8/3 1/5/4
f 6/4/3 12/14/5 9/7/5
f 4/1/1 10/15/6 11/9/6
f 16/11/7 20/95/8 17/12/8
f 12/14/5 16/11/7 13/13/7
f 10/15/6 14/17/9 15/16/9
f 14/17/9 18/96/10 19/18/10
f 23/19/11 24/28/12 28/20/12
f 26/22/13 22/25/13 21/23/14
f 22/25/13 26/22/13 32/26/15
f 24/28/12 30/34/16 31/29/16
f 33/30/17 36/33/17 40/31/18
f 29/27/15 32/26/15 36/33/17
f 30/34/16 34/36/19 35/35/19
f 34/36/19 38/97/20 39/37/20
f 43/38/21 44/47/22 48/39/22
f 46/41/23 42/44/23 41/42/24
f 42/44/23 46/41/23 52/45/25
f 44/47/22 50/53/26 51/48/26
f 53/49/27 56/52/27 60/50/28
f 49/46/25 52/45/25 56/52/27
f 50/53/26 54/55/29 55/54/29
f 54/55/29 58/98/30 59/56/30
f 64/57/31 68/65/31 67/58/32
f 65/60/33 66/63/34 62/61/34
f 66/63/34 72/71/35 69/64/35
f 68/65/31 64/57/31 70/66/36
f 76/68/37 80/99/38 77/69/38
f 72/71/35 76/68/37 73/70/37
f 71/67/36 70/66/36 74/72/39
f 75/73/39 74/72/39 78/74/40
f 84/76/41 88/84/41 87/77/42
f 85/79/43 86/82/44 82/80/44
f 86/82/44 92/90/45 89/83/45
f 88/84/41 84/76/41 90/85/46
f 96/87/47 100/100/48 97/88/48
f 92/90/45 96/87/47 93/89/47
f 91/86/46 90/85/46 94/91/49
f 95/92/49 94/91/49 98/93/50
